HIERARCHY
ROOT Hips
{
	OFFSET	0.00	0.00	0.00
	CHANNELS 6 Xposition Yposition Zposition Zrotation Xrotation Yrotation
	JOINT LeftUpLeg
	{
		OFFSET	 0.126116	-0.014019	-0.065224
		CHANNELS 3 Zrotation Xrotation Yrotation
		JOINT LeftLeg
		{
			OFFSET	 0.000000	 0.000000	 0.569914
			CHANNELS 3 Zrotation Xrotation Yrotation
			JOINT LeftFoot
			{
				OFFSET	 0.000000	 0.000000	 0.544423
				CHANNELS 3 Zrotation Xrotation Yrotation
				JOINT LeftToeBase
				{
					OFFSET	 0.000000	 0.000000	 0.207117
					CHANNELS 3 Zrotation Xrotation Yrotation
					End Site
					{
						OFFSET	 0.000000	 0.000000	 0.207117
					}
				}
			}
		}
	}
	JOINT RightUpLeg
	{
		OFFSET	-0.124023	-0.008373	-0.065224
		CHANNELS 3 Zrotation Xrotation Yrotation
		JOINT RightLeg
		{
			OFFSET	 0.000000	 0.000000	 0.570047
			CHANNELS 3 Zrotation Xrotation Yrotation
			JOINT RightFoot
			{
				OFFSET	 0.000000	 0.000000	 0.544354
				CHANNELS 3 Zrotation Xrotation Yrotation
				JOINT RightToeBase
				{
					OFFSET	 0.000000	 0.000000	 0.207540
					CHANNELS 3 Zrotation Xrotation Yrotation
					End Site
					{
						OFFSET	 0.000000	 0.000000	 0.207540
					}
				}
			}
		}
	}
	JOINT Spine
	{
		OFFSET	 0.000184	-0.007763	 0.117403
		CHANNELS 3 Zrotation Xrotation Yrotation
		JOINT Spine1
		{
			OFFSET	 0.000000	 0.000000	 0.137269
			CHANNELS 3 Zrotation Xrotation Yrotation
			JOINT Spine2
			{
				OFFSET	 0.000000	 0.000000	 0.156879
				CHANNELS 3 Zrotation Xrotation Yrotation
				JOINT LeftShoulder
				{
					OFFSET	 0.080501	-0.002496	 0.160144
					CHANNELS 3 Zrotation Xrotation Yrotation
					JOINT LeftArm
					{
						OFFSET	 0.000000	 0.000000	 0.164363
						CHANNELS 3 Zrotation Xrotation Yrotation
						JOINT LeftForeArm
						{
							OFFSET	 0.000000	 0.000000	 0.364576
							CHANNELS 3 Zrotation Xrotation Yrotation
							JOINT LeftHand
							{
								OFFSET	 0.000000	 0.000000	 0.360812
								CHANNELS 3 Zrotation Xrotation Yrotation
								JOINT LeftHandIndex1
								{
									OFFSET	 0.000000	 0.000000	 0.086006
									CHANNELS 3 Zrotation Xrotation Yrotation
									JOINT LeftHandIndex2
									{
										OFFSET	 0.000000	 0.000000	 0.047236
										CHANNELS 3 Zrotation Xrotation Yrotation
										JOINT LeftHandIndex3
										{
											OFFSET	-0.004284	-0.000551	 0.038166
											CHANNELS 3 Zrotation Xrotation Yrotation
											End Site
											{
												OFFSET	-0.004284	-0.000551	 0.038166
											}
										}
									}
								}
							}
						}
					}
				}
				JOINT Neck
				{
					OFFSET	 0.000000	 0.000000	 0.176489
					CHANNELS 3 Zrotation Xrotation Yrotation
					JOINT Head
					{
						OFFSET	 0.000000	-0.001747	 0.077940
						CHANNELS 3 Zrotation Xrotation Yrotation
						End Site
						{
							OFFSET	 0.000000	-0.001747	 0.077940
						}
					}
				}
				JOINT RightShoulder
				{
					OFFSET	-0.080363	 0.000306	 0.159706
					CHANNELS 3 Zrotation Xrotation Yrotation
					JOINT RightArm
					{
						OFFSET	 0.000000	 0.000000	 0.164196
						CHANNELS 3 Zrotation Xrotation Yrotation
						JOINT RightForeArm
						{
							OFFSET	 0.000000	 0.000000	 0.365611
							CHANNELS 3 Zrotation Xrotation Yrotation
							JOINT RightHand
							{
								OFFSET	 0.000000	 0.000000	 0.360648
								CHANNELS 3 Zrotation Xrotation Yrotation
								JOINT RightHandIndex1
								{
									OFFSET	 0.000000	 0.000000	 0.069977
									CHANNELS 3 Zrotation Xrotation Yrotation
									JOINT RightHandIndex2
									{
										OFFSET	 0.000000	 0.000000	 0.052305
										CHANNELS 3 Zrotation Xrotation Yrotation
										JOINT RightHandIndex3
										{
											OFFSET	 0.009002	-0.000782	 0.042196
											CHANNELS 3 Zrotation Xrotation Yrotation
											End Site
											{
												OFFSET	 0.009002	-0.000782	 0.042196
											}
										}
									}
								}
							}
						}
					}
				}
			}
		}
	}
}
MOTION
Frames:    11
Frame Time: 0.03333334
 0.010539	-1.790486	 1.300424	-0.924108	 17.659080	 3.775656	 3.605220	-34.869610	 175.505000	-1.654795	-43.062820	-0.514114	-0.852084	 81.210410	 0.404432	-2.353852	 33.956630	-0.124029	-0.756981	-35.913670	-179.441300	-2.849768	-42.842320	-0.880269	-1.600366	 81.680860	 0.620650	 2.406384	 20.148190	-0.170156	 0.782335	 14.944590	 1.204976	 0.720617	 1.704621	-1.893916	 0.164125	-4.067731	 0.016642	-125.229000	 89.271260	-142.327600	 57.190890	 66.571530	-62.254020	-9.849237	-1.485446	-20.626430	-1.458740	-2.212670	-5.373854	-5.517115	-12.052470	-1.004328	-5.213516	-0.193813	 3.566525	-1.378229	 35.397820	-2.634230	 0.781746	 0.037609	-3.749398	 0.061987	-6.992740	 1.379964	 93.694460	 85.964740	 172.048000	-59.496490	 76.001010	 68.108600	-3.090727	-14.127120	 26.952400	-25.257680	-3.188037	 9.580448	-9.679873	-9.549582	-38.696880	 5.070815	-0.697434	-9.399699	-2.350882	 35.473990	 5.254307
 0.012571	-1.803410	 1.300646	-0.896892	 18.231050	 3.812348	 3.578225	-34.963390	 175.594300	-2.016347	-43.289200	-0.785712	-1.012414	 81.844470	 0.240320	-2.350105	 34.460360	-0.135966	-0.760231	-35.634370	-179.429400	-2.538246	-42.483630	-0.674138	-1.534110	 82.644700	 0.841855	 2.405366	 21.038430	-0.152414	 0.904475	 14.631950	 1.083387	 0.777684	 1.408108	-1.962967	 0.092779	-4.422497	 0.009693	-123.139200	 89.221670	-144.360300	 60.876670	 67.527390	-63.559340	-8.752597	-1.647622	-19.273860	-0.867499	-2.244841	-5.370141	-5.051491	-11.615800	 0.048124	-5.213516	-0.193813	 3.566525	-1.378229	 35.397820	-2.634230	 0.731307	-0.203537	-3.569353	-0.039109	-7.461586	 1.256914	 93.653940	 85.999680	 172.182600	-52.944900	 78.208680	 59.553020	-4.087791	-12.912360	 22.504380	-26.963620	-3.198089	 9.560735	-9.229252	-8.634111	-38.290360	 5.070815	-0.697434	-9.399699	-2.350882	 35.473990	 5.254307
 0.014307	-1.815077	 1.300775	-1.130380	 18.651300	 3.877079	 3.544378	-34.962340	 175.632000	-2.089526	-43.612380	-0.869919	-1.077373	 82.331980	 0.204133	-2.342353	 35.442660	-0.159565	-0.735915	-35.288380	-179.506200	-2.302091	-42.252840	-0.501512	-1.449149	 83.189400	 0.983703	 2.404786	 21.450720	-0.144161	 1.103324	 14.395580	 1.012139	 0.921662	 1.090404	-1.903150	 0.091451	-4.792884	 0.009847	-119.174500	 89.113970	-148.244900	 63.725710	 68.349890	-64.450090	-7.827643	-1.791478	-18.188010	-0.287912	-2.268996	-5.365514	-4.376770	-10.968720	 1.601324	-5.213516	-0.193813	 3.566525	-1.378229	 35.397820	-2.634230	 0.778875	-0.473776	-3.403659	-0.105535	-7.929588	 1.207907	 93.758780	 86.135930	 172.176000	-44.124070	 79.789350	 48.917550	-4.625973	-12.124240	 19.804280	-28.283400	-3.213955	 9.528506	-8.901213	-7.881268	-38.047840	 5.070815	-0.697434	-9.399699	-2.350882	 35.473990	 5.254307
 0.016234	-1.826720	 1.301763	-1.536342	 19.098830	 3.957449	 3.569065	-34.815900	 175.710100	-2.262959	-43.678630	-0.982884	-1.155162	 82.517140	 0.154210	-2.334433	 36.375630	-0.182407	-0.761923	-35.315090	-179.542500	-2.420947	-42.148530	-0.597170	-1.532493	 83.355330	 0.970968	 2.404605	 21.569870	-0.141760	 1.261721	 14.134290	 0.852247	 1.067026	 0.831783	-1.698158	 0.166602	-5.091841	 0.018370	-112.750800	 88.886540	-154.664200	 65.844230	 69.256470	-64.849410	-7.450379	-1.832166	-17.260500	-0.012891	-2.290020	-5.362477	-4.003569	-10.594720	 2.475329	-5.213516	-0.193813	 3.566525	-1.378229	 35.397820	-2.634230	 0.881514	-0.571769	-3.137693	-0.088490	-8.423052	 1.378491	 94.136050	 86.417830	 171.875800	-34.258060	 80.653280	 37.368440	-4.720276	-11.445390	 18.078290	-28.916320	-3.227235	 9.500571	-8.727622	-7.560236	-37.862420	 5.070815	-0.697434	-9.399699	-2.350882	 35.473990	 5.254307
 0.017204	-1.832682	 1.302986	-1.776994	 19.365080	 3.930116	 3.576213	-34.790540	 175.755400	-2.435816	-43.580420	-1.095005	-1.209091	 82.426720	 0.086522	-2.330257	 36.842690	-0.194010	-0.815684	-35.426730	-179.437700	-2.549978	-42.110600	-0.717003	-1.627970	 83.390660	 0.934622	 2.404563	 21.598260	-0.141196	 1.305767	 13.993420	 0.811943	 1.123979	 0.735375	-1.553800	 0.231961	-5.201216	 0.025797	-109.901200	 88.744000	-157.535800	 66.708160	 69.629810	-65.098660	-7.231530	-1.877000	-16.808190	 0.218061	-2.301765	-5.359922	-3.916799	-10.783640	 2.681329	-5.213516	-0.193813	 3.566525	-1.378229	 35.397820	-2.634230	 0.927960	-0.675171	-2.938712	-0.036430	-8.531417	 1.534335	 94.450640	 86.587110	 171.558200	-29.818200	 80.798360	 32.132610	-4.889890	-11.263640	 17.548230	-29.204110	-3.232004	 9.488976	-8.685422	-7.597070	-37.735570	 5.070815	-0.697434	-9.399699	-2.350882	 35.473990	 5.254307
 0.018081	-1.840552	 1.304679	-2.101550	 19.678980	 3.887826	 3.574389	-34.664530	 175.779200	-2.653375	-43.387170	-1.239539	-1.275076	 82.239210	-0.006552	-2.325274	 37.379560	-0.207493	-0.853390	-35.352180	-179.285600	-2.780020	-42.006660	-0.895808	-1.773994	 83.394610	 0.880461	 2.404517	 21.630050	-0.140558	 1.348901	 13.814100	 0.826462	 1.188278	 0.653019	-1.405403	 0.322104	-5.288820	 0.036066	-107.846500	 88.620020	-159.632100	 67.403570	 69.956840	-65.370000	-6.524184	-2.077109	-16.300140	 1.022130	-2.317689	-5.351941	-3.876807	-10.968080	 2.776098	-5.213516	-0.193813	 3.566525	-1.378229	 35.397820	-2.634230	 0.983405	-0.796500	-2.680306	 0.042797	-8.576312	 1.700089	 94.793070	 86.750740	 171.207700	-25.494510	 80.778870	 26.963380	-5.142575	-11.211840	 17.249800	-29.498500	-3.235031	 9.479961	-8.624197	-7.666736	-37.540380	 5.070815	-0.697434	-9.399699	-2.350882	 35.473990	 5.254307
 0.018240	-1.847382	 1.306025	-2.301961	 19.866170	 3.872879	 3.570617	-34.386560	 175.799400	-2.700317	-43.178600	-1.269297	-1.311938	 82.193670	-0.014634	-2.321603	 37.763270	-0.217220	-0.787962	-35.292520	-179.249100	-2.944285	-41.766920	-0.971777	-1.829304	 83.414320	 0.849678	 2.404726	 21.495290	-0.143258	 1.372849	 13.599410	 0.842318	 1.234400	 0.596410	-1.324996	 0.393258	-5.342942	 0.044217	-106.992700	 88.574540	-160.555000	 67.529050	 70.052180	-65.393520	-6.275205	-2.149121	-16.144990	 1.315939	-2.322891	-5.348833	-4.120862	-11.070550	 2.203881	-5.213516	-0.193813	 3.566525	-1.378229	 35.397820	-2.634230	 1.037988	-0.793648	-2.541468	 0.110011	-8.681642	 1.789641	 94.898750	 86.818630	 171.132900	-23.000600	 80.624580	 23.867300	-5.215060	-11.235170	 17.292160	-29.495510	-3.235311	 9.480411	-8.568977	-7.744907	-37.353900	 5.070815	-0.697434	-9.399699	-2.350882	 35.473990	 5.254307
 0.017653	-1.854000	 1.307218	-2.265224	 19.987710	 3.843808	 3.563353	-34.147040	 175.802900	-2.607507	-42.985570	-1.205090	-1.317040	 82.247410	 0.044106	-2.318358	 38.093520	-0.225653	-0.709357	-34.786000	-179.235600	-2.934487	-41.291230	-0.922861	-1.771647	 83.562000	 0.852889	 2.404982	 21.316150	-0.146851	 1.311024	 13.341600	 0.851672	 1.210312	 0.553816	-1.311342	 0.447706	-5.372038	 0.050452	-106.856000	 88.585150	-160.763000	 67.042050	 70.033230	-65.010290	-6.661392	-2.079093	-16.506230	 0.980889	-2.309862	-5.353021	-4.156065	-11.171850	 2.122697	-5.213516	-0.193813	 3.566525	-1.378229	 35.397820	-2.634230	 1.067364	-0.757058	-2.529328	 0.198494	-8.770151	 1.901527	 94.911340	 86.821830	 171.116400	-22.227240	 80.428890	 22.796730	-5.238361	-11.269600	 17.441540	-29.368410	-3.234030	 9.483456	-8.523537	-7.825267	-37.189590	 5.070815	-0.697434	-9.399699	-2.350882	 35.473990	 5.254307
 0.016370	-1.859322	 1.308225	-2.045762	 20.013780	 3.816130	 3.471302	-33.996480	 175.716500	-2.421863	-42.854490	-1.126620	-1.314389	 82.318020	 0.115273	-2.316406	 38.287610	-0.230644	-0.709572	-34.213780	-179.341600	-2.729547	-40.714470	-0.789522	-1.672732	 83.642450	 0.913132	 2.405200	 21.159260	-0.149996	 1.188933	 13.159340	 0.852311	 1.126132	 0.461185	-1.367869	 0.480747	-5.407998	 0.054325	-107.276900	 88.628550	-160.378000	 66.067850	 69.965300	-64.459910	-7.094438	-2.056786	-17.202730	 0.751815	-2.291668	-5.356448	-4.455682	-11.637630	 1.432982	-5.213516	-0.193813	 3.566525	-1.378229	 35.397820	-2.634230	 1.063824	-0.806069	-2.536609	 0.283109	-8.780593	 1.831578	 94.895110	 86.768500	 171.058500	-22.603150	 80.323010	 23.325240	-5.153552	-11.335850	 17.634260	-29.260200	-3.233648	 9.485281	-8.505504	-7.886155	-37.104420	 5.070815	-0.697434	-9.399699	-2.350882	 35.473990	 5.254307
 0.014735	-1.864119	 1.309056	-1.898595	 19.968600	 3.830485	 3.309202	-33.792260	 175.548600	-2.238463	-42.786470	-1.093448	-1.317279	 82.369460	 0.147407	-2.315996	 38.328580	-0.231696	-0.761268	-33.729840	-179.482300	-2.601203	-40.233880	-0.736095	-1.715305	 83.697900	 1.026834	 2.405409	 21.000650	-0.153167	 1.120840	 12.990230	 0.874787	 1.072277	 0.358858	-1.418415	 0.480299	-5.421162	 0.054329	-108.177600	 88.693890	-159.479900	 64.487170	 69.915280	-63.724410	-7.703403	-2.062251	-17.945860	 0.621225	-2.275784	-5.358657	-4.842693	-12.619780	 0.572978	-5.213516	-0.193813	 3.566525	-1.378229	 35.397820	-2.634230	 1.052692	-0.855779	-2.593915	 0.308656	-8.744439	 1.789898	 94.753460	 86.689500	 171.178900	-23.794370	 80.261360	 24.909020	-4.962706	-11.438010	 17.933100	-29.095670	-3.232216	 9.489959	-8.536184	-7.912133	-37.159460	 5.070815	-0.697434	-9.399699	-2.350882	 35.473990	 5.254307
 0.013306	-1.868362	 1.309636	-1.951708	 19.903580	 3.847906	 3.221220	-33.323990	 175.445900	-2.240736	-42.585850	-1.144837	-1.360681	 82.350090	 0.120688	-2.315626	 38.364770	-0.232635	-0.802662	-33.395420	-179.516500	-2.656056	-39.883070	-0.796231	-1.767669	 83.807390	 1.013973	 2.405524	 20.912230	-0.154937	 1.159691	 12.789290	 0.959549	 1.093997	 0.304124	-1.428173	 0.468425	-5.398994	 0.052896	-109.291000	 88.760930	-158.348900	 62.527740	 69.847110	-62.719000	-8.488519	-2.028366	-18.722160	 0.373283	-2.258363	-5.361622	-5.430715	-13.694380	-0.705824	-5.213516	-0.193813	 3.566525	-1.378229	 35.397820	-2.634230	 1.056500	-0.882134	-2.629815	 0.280176	-8.665886	 1.696986	 94.607220	 86.628970	 171.342700	-26.392550	 80.114360	 27.925620	-4.888990	-11.566570	 18.348360	-28.844260	-3.229147	 9.497907	-8.567318	-7.933726	-37.218520	 5.070815	-0.697434	-9.399699	-2.350882	 35.473990	 5.254307
